<svg xmlns="http://www.w3.org/2000/svg" viewBox="0 0 1200 800" role="img" aria-labelledby="title desc">
  <title id="title">Avengers Intelligent Platform Preview</title>
  <desc id="desc">Stylized dark blue analytics and multi-module platform dashboard preview.</desc>
  <defs>
    <linearGradient id="bg" x1="0" x2="1" y1="0" y2="1">
      <stop offset="0%" stop-color="#152a57"/>
      <stop offset="55%" stop-color="#081423"/>
      <stop offset="100%" stop-color="#050d18"/>
    </linearGradient>
  </defs>
  <rect width="1200" height="800" fill="url(#bg)"/>
  <rect x="58" y="58" width="1084" height="684" rx="34" fill="#0b1729" stroke="#8ec5ff" stroke-opacity="0.18"/>
  <rect x="92" y="98" width="180" height="54" rx="18" fill="#173457"/>
  <rect x="294" y="98" width="320" height="54" rx="18" fill="#112341"/>
  <rect x="640" y="98" width="414" height="54" rx="18" fill="#112341"/>
  <rect x="92" y="184" width="290" height="230" rx="24" fill="#13284a"/>
  <rect x="410" y="184" width="290" height="230" rx="24" fill="#1b3961"/>
  <rect x="728" y="184" width="290" height="230" rx="24" fill="#10233d"/>
  <rect x="92" y="442" width="926" height="214" rx="28" fill="#0f2035"/>
  <circle cx="228" cy="306" r="62" fill="#4f8cff" fill-opacity="0.28"/>
  <circle cx="546" cy="306" r="62" fill="#8ec5ff" fill-opacity="0.22"/>
  <circle cx="864" cy="306" r="62" fill="#8ec5ff" fill-opacity="0.18"/>
  <path d="M148 506c84-24 176-18 256 20s158 42 232 14 156-30 244 10" fill="none" stroke="#8ec5ff" stroke-width="8" stroke-linecap="round"/>
  <path d="M148 566c94-38 188-24 266 18s152 52 232 22 164-22 246 4" fill="none" stroke="#4f8cff" stroke-opacity="0.85" stroke-width="8" stroke-linecap="round"/>
  <rect x="136" y="204" width="130" height="22" rx="11" fill="#f3f8ff" fill-opacity="0.78"/>
  <rect x="136" y="244" width="88" height="16" rx="8" fill="#f3f8ff" fill-opacity="0.4"/>
  <rect x="454" y="204" width="130" height="22" rx="11" fill="#f3f8ff" fill-opacity="0.78"/>
  <rect x="454" y="244" width="88" height="16" rx="8" fill="#f3f8ff" fill-opacity="0.4"/>
  <rect x="772" y="204" width="130" height="22" rx="11" fill="#f3f8ff" fill-opacity="0.78"/>
  <rect x="772" y="244" width="88" height="16" rx="8" fill="#f3f8ff" fill-opacity="0.4"/>
</svg>