<svg xmlns="http://www.w3.org/2000/svg" viewBox="0 0 1200 800" role="img" aria-labelledby="title desc">
  <title id="title">Car Rental System Preview</title>
  <desc id="desc">Stylized dark blue interface preview for a car rental management dashboard.</desc>
  <defs>
    <linearGradient id="bg" x1="0" x2="1" y1="0" y2="1">
      <stop offset="0%" stop-color="#12284d"/>
      <stop offset="52%" stop-color="#081423"/>
      <stop offset="100%" stop-color="#05101d"/>
    </linearGradient>
    <linearGradient id="panel" x1="0" x2="1" y1="0" y2="1">
      <stop offset="0%" stop-color="#f3f8ff"/>
      <stop offset="100%" stop-color="#b8cde8"/>
    </linearGradient>
  </defs>
  <rect width="1200" height="800" fill="url(#bg)"/>
  <rect x="64" y="58" width="1072" height="684" rx="34" fill="#0b1729" stroke="#8ec5ff" stroke-opacity="0.18"/>
  <rect x="104" y="108" width="260" height="76" rx="22" fill="#173457"/>
  <rect x="390" y="108" width="706" height="76" rx="22" fill="#10233d"/>
  <rect x="104" y="214" width="510" height="470" rx="28" fill="url(#panel)"/>
  <rect x="638" y="214" width="458" height="220" rx="28" fill="#153152"/>
  <rect x="638" y="462" width="458" height="222" rx="28" fill="#0f2035"/>
  <circle cx="198" cy="290" r="58" fill="#4f8cff" fill-opacity="0.22"/>
  <rect x="280" y="266" width="230" height="28" rx="14" fill="#4f8cff" fill-opacity="0.34"/>
  <rect x="280" y="312" width="168" height="18" rx="9" fill="#214f83" fill-opacity="0.62"/>
  <rect x="280" y="348" width="204" height="18" rx="9" fill="#214f83" fill-opacity="0.52"/>
  <rect x="280" y="384" width="178" height="18" rx="9" fill="#214f83" fill-opacity="0.42"/>
  <rect x="280" y="420" width="146" height="18" rx="9" fill="#214f83" fill-opacity="0.36"/>
  <rect x="104" y="514" width="180" height="120" rx="18" fill="#dceaff"/>
  <rect x="308" y="514" width="180" height="120" rx="18" fill="#b5c9ec"/>
  <path d="M704 352h288" stroke="#f3f8ff" stroke-opacity="0.34" stroke-width="6"/>
  <path d="M704 316c40-62 88-52 126 4s70 54 112 10 62-12 70 34" fill="none" stroke="#8ec5ff" stroke-width="6" stroke-linecap="round"/>
  <rect x="684" y="492" width="116" height="104" rx="18" fill="#1b3961"/>
  <rect x="822" y="492" width="116" height="104" rx="18" fill="#21476f"/>
  <rect x="960" y="492" width="116" height="104" rx="18" fill="#17304e"/>
  <circle cx="750" cy="544" r="28" fill="#8ec5ff" fill-opacity="0.32"/>
  <circle cx="888" cy="544" r="28" fill="#8ec5ff" fill-opacity="0.2"/>
  <circle cx="1026" cy="544" r="28" fill="#8ec5ff" fill-opacity="0.24"/>
</svg>