<svg xmlns="http://www.w3.org/2000/svg" viewBox="0 0 1200 800" role="img" aria-labelledby="title desc">
  <title id="title">Robotic Garage Assistant Preview</title>
  <desc id="desc">Stylized robotics and garage automation dashboard preview.</desc>
  <defs>
    <linearGradient id="bg" x1="0" x2="1" y1="0" y2="1">
      <stop offset="0%" stop-color="#173769"/>
      <stop offset="56%" stop-color="#081423"/>
      <stop offset="100%" stop-color="#050b14"/>
    </linearGradient>
  </defs>
  <rect width="1200" height="800" fill="url(#bg)"/>
  <rect x="64" y="60" width="1072" height="680" rx="34" fill="#0b1729" stroke="#8ec5ff" stroke-opacity="0.18"/>
  <rect x="104" y="106" width="260" height="82" rx="22" fill="#173457"/>
  <rect x="388" y="106" width="708" height="82" rx="22" fill="#112341"/>
  <rect x="104" y="222" width="420" height="420" rx="28" fill="#dfe7f2"/>
  <rect x="560" y="222" width="536" height="420" rx="28" fill="#10233d"/>
  <rect x="180" y="288" width="268" height="268" rx="26" fill="#0b1729"/>
  <rect x="616" y="262" width="150" height="106" rx="18" fill="#173457"/>
  <rect x="792" y="262" width="150" height="106" rx="18" fill="#21476f"/>
  <rect x="968" y="262" width="90" height="106" rx="18" fill="#1b3961"/>
  <rect x="616" y="396" width="444" height="110" rx="20" fill="#152a48"/>
  <rect x="616" y="534" width="444" height="64" rx="18" fill="#173457"/>
  <circle cx="314" cy="418" r="72" fill="#4f8cff" fill-opacity="0.26"/>
  <path d="M260 430h108" stroke="#8ec5ff" stroke-width="8" stroke-linecap="round"/>
  <path d="M806 442h164" stroke="#8ec5ff" stroke-width="8" stroke-linecap="round"/>
  <path d="M886 290c44 0 72 30 72 66s-28 66-72 66" fill="none" stroke="#f3f8ff" stroke-width="8" stroke-linecap="round"/>
  <circle cx="1002" cy="316" r="18" fill="#8ec5ff"/>
</svg>