<svg xmlns="http://www.w3.org/2000/svg" viewBox="0 0 1200 800" role="img" aria-labelledby="title desc">
  <title id="title">Office Item Recognition Preview</title>
  <desc id="desc">Stylized computer vision preview with labeled office objects.</desc>
  <defs>
    <linearGradient id="bg" x1="0" x2="1" y1="0" y2="1">
      <stop offset="0%" stop-color="#10264d"/>
      <stop offset="55%" stop-color="#081423"/>
      <stop offset="100%" stop-color="#050b14"/>
    </linearGradient>
  </defs>
  <rect width="1200" height="800" fill="url(#bg)"/>
  <rect x="68" y="58" width="1064" height="684" rx="34" fill="#0c1728" stroke="#8ec5ff" stroke-opacity="0.16"/>
  <rect x="106" y="96" width="988" height="56" rx="18" fill="#11233e"/>
  <rect x="106" y="176" width="540" height="500" rx="28" fill="#dfe7f2"/>
  <rect x="674" y="176" width="420" height="500" rx="28" fill="#10233d"/>
  <rect x="146" y="226" width="170" height="170" rx="22" fill="#4f8cff" fill-opacity="0.32" stroke="#8ec5ff" stroke-opacity="0.56"/>
  <rect x="360" y="244" width="188" height="140" rx="20" fill="#b5c9ec" stroke="#8ec5ff" stroke-opacity="0.36"/>
  <rect x="164" y="450" width="240" height="118" rx="20" fill="#d3e3f7" stroke="#8ec5ff" stroke-opacity="0.26"/>
  <rect x="712" y="226" width="138" height="104" rx="18" fill="#173457"/>
  <rect x="874" y="226" width="138" height="104" rx="18" fill="#21476f"/>
  <rect x="712" y="356" width="138" height="104" rx="18" fill="#10233d"/>
  <rect x="874" y="356" width="138" height="104" rx="18" fill="#173457"/>
  <rect x="712" y="486" width="300" height="112" rx="20" fill="#152a48"/>
  <path d="M190 300h92" stroke="#f44336" stroke-width="5" stroke-linecap="round"/>
  <path d="M438 314h94" stroke="#00d1ff" stroke-width="5" stroke-linecap="round"/>
  <path d="M260 508h102" stroke="#4f8cff" stroke-width="5" stroke-linecap="round"/>
  <text x="712" y="212" fill="#dceaff" font-family="Inter, Arial, sans-serif" font-size="22" letter-spacing="2">DETECTED ITEMS</text>
</svg>