<svg xmlns="http://www.w3.org/2000/svg" viewBox="0 0 1200 800" role="img" aria-labelledby="title desc">
  <title id="title">Posture Correction App Preview</title>
  <desc id="desc">Stylized health and posture monitoring dashboard preview.</desc>
  <defs>
    <linearGradient id="bg" x1="0" x2="1" y1="0" y2="1">
      <stop offset="0%" stop-color="#12284d"/>
      <stop offset="55%" stop-color="#081423"/>
      <stop offset="100%" stop-color="#050b14"/>
    </linearGradient>
  </defs>
  <rect width="1200" height="800" fill="url(#bg)"/>
  <rect x="58" y="58" width="1084" height="684" rx="34" fill="#0b1729" stroke="#8ec5ff" stroke-opacity="0.18"/>
  <rect x="94" y="104" width="1012" height="76" rx="22" fill="#112341"/>
  <rect x="94" y="208" width="430" height="496" rx="28" fill="#dfe7f2"/>
  <rect x="552" y="208" width="554" height="238" rx="28" fill="#152a48"/>
  <rect x="552" y="472" width="554" height="232" rx="28" fill="#10233d"/>
  <circle cx="306" cy="404" r="120" fill="#4f8cff" fill-opacity="0.22"/>
  <path d="M304 242c36 0 64 28 64 62s-28 62-64 62-64-28-64-62 28-62 64-62z" fill="#0b1729"/>
  <path d="M304 368c-50 0-90 38-90 84v92h180v-92c0-46-40-84-90-84z" fill="#0b1729"/>
  <path d="M718 290h318" stroke="#8ec5ff" stroke-width="8" stroke-linecap="round"/>
  <path d="M718 338c70-44 136-40 206 10s128 48 180-4" fill="none" stroke="#4f8cff" stroke-width="8" stroke-linecap="round"/>
  <rect x="592" y="516" width="152" height="88" rx="20" fill="#173457"/>
  <rect x="770" y="516" width="152" height="88" rx="20" fill="#21476f"/>
  <rect x="948" y="516" width="122" height="88" rx="20" fill="#1b3961"/>
  <circle cx="344" cy="598" r="38" fill="#8ec5ff" fill-opacity="0.28"/>
</svg>